<svg xmlns="http://www.w3.org/2000/svg" id="Layer_1" height="512" viewBox="0 0 500 500" width="512"><g id="XMLID_1672_"><g id="XMLID_1150_"><g id="XMLID_858_"><g id="XMLID_1677_"><ellipse id="XMLID_499_" cx="309.462" cy="278.735" rx="7.008" ry="7"></ellipse></g><path id="XMLID_917_" d="m321.442 393.362-5.124-84.346c-.167-2.757-2.581-4.86-5.294-4.688-2.757.167-4.855 2.538-4.688 5.294l.585 9.625h-59.298v-58.337h60.171c2.787 0 5.126-2.459 4.994-5.241l-3.331-68.934c-.129-2.665-2.327-4.759-4.994-4.759-.004 0-.009 0-.013 0l-272.095.687c-2.64.007-4.819 2.064-4.979 4.7l-12.367 205.607c-.169 2.83 2.153 5.296 4.984 5.3l124.864.166v49.436h-22.751c-2.259 0-4.236 1.514-4.826 3.694l-11.402 42.127c-.848 3.127 1.592 6.306 4.826 6.306h115.394c3.234 0 5.674-3.178 4.826-6.306l-11.402-42.127c-.59-2.18-2.567-3.694-4.826-3.694h-59.838v-49.422l27.087.036v24.387c0 2.761 2.238 5 5 5s5-2.239 5-5v-24.373l124.5.166c2.837-.001 5.168-2.465 4.997-5.304zm-73.819-201.241 52.076-.131 2.847 58.921h-54.923zm-28.059 297.879h-102.327l8.695-32.127h84.937zm-130.356-101.638-63.898-.085 3.551-59.03h60.348v59.115zm0-69.114h-59.746l3.509-58.337h56.237zm0-68.337h-55.635l3.504-58.259 52.131-.132zm74.208 137.55-64.208-.085v-59.128h64.208zm0-69.213h-64.208v-58.337h64.208zm0-68.337h-64.208v-58.416l64.208-.162zm74.207 137.649-64.207-.085v-59.227h64.207zm0-69.312h-64.207v-58.337h64.207zm0-68.337h-64.207v-58.603l64.207-.162zm10 137.662v-59.326h59.905l3.609 59.41z"></path></g><g id="XMLID_1008_"><g id="XMLID_1149_"><path id="XMLID_2427_" d="m393.891 133.101c-23.063 0-41.825-18.785-41.825-41.875s18.763-41.875 41.825-41.875 41.825 18.785 41.825 41.875-18.763 41.875-41.825 41.875zm0-73.75c-17.549 0-31.825 14.299-31.825 31.875s14.276 31.875 31.825 31.875 31.825-14.299 31.825-31.875-14.277-31.875-31.825-31.875z"></path></g><g id="XMLID_1009_"><g id="XMLID_1148_"><path id="XMLID_2426_" d="m393.891 29.991c-2.762 0-5-2.239-5-5v-19.991c0-2.761 2.238-5 5-5s5 2.239 5 5v19.991c0 2.761-2.239 5-5 5z"></path></g><g id="XMLID_1147_"><path id="XMLID_2425_" d="m347.118 49.391c-1.281 0-2.562-.489-3.538-1.467l-14.116-14.136c-1.951-1.954-1.949-5.12.005-7.071 1.956-1.951 5.121-1.948 7.071.005l14.116 14.136c3.076 3.079.835 8.533-3.538 8.533z"></path></g><g id="XMLID_1146_"><path id="XMLID_2424_" d="m327.745 96.226h-19.964c-2.762 0-5-2.239-5-5s2.238-5 5-5h19.964c2.762 0 5 2.239 5 5s-2.238 5-5 5z"></path></g><g id="XMLID_1145_"><path id="XMLID_2423_" d="m333.002 157.197c-4.37 0-6.615-5.452-3.538-8.533l14.116-14.136c1.951-1.954 5.116-1.956 7.071-.005 1.954 1.951 1.956 5.117.005 7.071l-14.116 14.136c-.977.978-2.258 1.467-3.538 1.467z"></path></g><g id="XMLID_1144_"><path id="XMLID_2422_" d="m393.891 182.452c-2.762 0-5-2.239-5-5v-19.991c0-2.761 2.238-5 5-5s5 2.239 5 5v19.991c0 2.761-2.239 5-5 5z"></path></g><g id="XMLID_1143_"><path id="XMLID_2421_" d="m454.779 157.197c-1.281 0-2.562-.489-3.538-1.467l-14.116-14.136c-1.951-1.954-1.949-5.12.005-7.071 1.956-1.951 5.121-1.949 7.071.005l14.116 14.136c3.076 3.08.835 8.533-3.538 8.533z"></path></g><g id="XMLID_1141_"><path id="XMLID_2420_" d="m480 96.226h-19.964c-2.762 0-5-2.239-5-5s2.238-5 5-5h19.964c2.762 0 5 2.239 5 5s-2.238 5-5 5z"></path></g><g id="XMLID_1140_"><path id="XMLID_2419_" d="m440.663 49.391c-4.37 0-6.615-5.452-3.538-8.533l14.116-14.136c1.951-1.954 5.116-1.956 7.071-.005 1.954 1.951 1.956 5.117.005 7.071l-14.116 14.136c-.976.977-2.258 1.467-3.538 1.467z"></path></g></g></g></g><g id="XMLID_2479_"><path id="XMLID_915_" d="m149.857 58.364h-7.014v-7c0-2.761-2.238-5-5-5s-5 2.239-5 5v7h-7.013c-2.762 0-5 2.239-5 5s2.238 5 5 5h7.013v7c0 2.761 2.238 5 5 5s5-2.239 5-5v-7h7.014c2.762 0 5-2.239 5-5s-2.238-5-5-5z"></path><path id="XMLID_857_" d="m417.917 376.665h-7.013v-7c0-2.761-2.238-5-5-5s-5 2.239-5 5v7h-7.014c-2.762 0-5 2.239-5 5s2.238 5 5 5h7.014v7c0 2.761 2.238 5 5 5s5-2.239 5-5v-7h7.013c2.762 0 5-2.239 5-5s-2.238-5-5-5z"></path></g></g></svg>